NotoSansRejang-Regular.ufo
<glyph name="uniA932" format="2">
  <advance width="830"/>
  <unicode hex="A932"/>
  <outline>
    <contour>
      <point x="537" y="-20" type="line"/>
      <point x="547" y="-20" type="line"/>
      <point x="855" y="715" type="line"/>
      <point x="771" y="715" type="line"/>
      <point x="575" y="228" type="line" smooth="yes"/>
      <point x="569" y="213"/>
      <point x="550" y="161"/>
      <point x="545" y="138" type="curve"/>
      <point x="541" y="138" type="line"/>
      <point x="531" y="172"/>
      <point x="517" y="209"/>
      <point x="509" y="228" type="curve" smooth="yes"/>
      <point x="458" y="358" type="line"/>
      <point x="606" y="715" type="line"/>
      <point x="527" y="715" type="line"/>
      <point x="417" y="452" type="line"/>
      <point x="298" y="734" type="line"/>
      <point x="288" y="734" type="line"/>
      <point x="-21" y="1" type="line"/>
      <point x="63" y="1" type="line"/>
      <point x="260" y="485" type="line" smooth="yes"/>
      <point x="267" y="503"/>
      <point x="282" y="542"/>
      <point x="291" y="577" type="curve"/>
      <point x="295" y="577" type="line"/>
      <point x="304" y="542"/>
      <point x="320" y="504"/>
      <point x="327" y="485" type="curve" smooth="yes"/>
      <point x="377" y="356" type="line"/>
      <point x="228" y="1" type="line"/>
      <point x="307" y="1" type="line"/>
      <point x="417" y="260" type="line"/>
    </contour>
  </outline>
</glyph>
<glyph name="uniA934" format="2">
  <advance width="477"/>
  <unicode hex="A934"/>
  <outline>
    <contour>
      <point x="-20" y="0" type="line"/>
      <point x="64" y="0" type="line"/>
      <point x="166" y="250" type="line" smooth="yes"/>
      <point x="174" y="269"/>
      <point x="188" y="309"/>
      <point x="197" y="344" type="curve"/>
      <point x="201" y="344" type="line"/>
      <point x="210" y="311"/>
      <point x="227" y="277"/>
      <point x="236" y="259" type="curve" smooth="yes"/>
      <point x="283" y="165" type="line"/>
      <point x="317" y="237" type="line"/>
      <point x="357" y="159" type="line"/>
      <point x="437" y="159" type="line"/>
      <point x="315" y="380" type="line"/>
      <point x="283" y="314" type="line"/>
      <point x="236" y="426" type="line"/>
      <point x="260" y="485" type="line" smooth="yes"/>
      <point x="267" y="503"/>
      <point x="282" y="542"/>
      <point x="291" y="577" type="curve"/>
      <point x="295" y="577" type="line"/>
      <point x="304" y="542"/>
      <point x="320" y="504"/>
      <point x="327" y="485" type="curve" smooth="yes"/>
      <point x="356" y="407" type="line"/>
      <point x="437" y="407" type="line"/>
      <point x="298" y="734" type="line"/>
      <point x="288" y="734" type="line"/>
    </contour>
  </outline>
</glyph>
<glyph name="uniA935" format="2">
  <advance width="876"/>
  <unicode hex="A935"/>
  <outline>
    <contour>
      <point x="329" y="-20" type="line"/>
      <point x="339" y="-20" type="line"/>
      <point x="603" y="464" type="line" smooth="yes"/>
      <point x="612" y="481"/>
      <point x="626" y="509"/>
      <point x="634" y="536" type="curve"/>
      <point x="638" y="536" type="line"/>
      <point x="638" y="502"/>
      <point x="640" y="463"/>
      <point x="642" y="443" type="curve" smooth="yes"/>
      <point x="684" y="0" type="line"/>
      <point x="764" y="0" type="line"/>
      <point x="683" y="734" type="line"/>
      <point x="669" y="734" type="line"/>
      <point x="419" y="258" type="line" smooth="yes"/>
      <point x="404" y="230"/>
      <point x="390" y="194"/>
      <point x="380" y="165" type="curve"/>
      <point x="376" y="165" type="line"/>
      <point x="376" y="195"/>
      <point x="374" y="230"/>
      <point x="370" y="258" type="curve" smooth="yes"/>
      <point x="306" y="734" type="line"/>
      <point x="296" y="734" type="line"/>
      <point x="-20" y="0" type="line"/>
      <point x="64" y="0" type="line"/>
      <point x="246" y="438" type="line" smooth="yes"/>
      <point x="254" y="457"/>
      <point x="262" y="484"/>
      <point x="267" y="511" type="curve"/>
      <point x="271" y="511" type="line"/>
      <point x="271" y="477"/>
      <point x="274" y="437"/>
      <point x="276" y="418" type="curve" smooth="yes"/>
    </contour>
  </outline>
</glyph>
<glyph name="uniA938" format="2">
  <advance width="554"/>
  <unicode hex="A938"/>
  <outline>
    <contour>
      <point x="162" y="-20" type="line"/>
      <point x="172" y="-20" type="line"/>
      <point x="274" y="220" type="line" smooth="yes"/>
      <point x="283" y="241"/>
      <point x="293" y="274"/>
      <point x="300" y="304" type="curve"/>
      <point x="304" y="304" type="line"/>
      <point x="312" y="275"/>
      <point x="321" y="243"/>
      <point x="329" y="224" type="curve" smooth="yes"/>
      <point x="394" y="71" type="line"/>
      <point x="404" y="71" type="line"/>
      <point x="542" y="398" type="line"/>
      <point x="462" y="398" type="line"/>
      <point x="432" y="321" type="line" smooth="yes"/>
      <point x="424" y="301"/>
      <point x="409" y="262"/>
      <point x="400" y="228" type="curve"/>
      <point x="396" y="228" type="line"/>
      <point x="387" y="262"/>
      <point x="372" y="302"/>
      <point x="365" y="321" type="curve" smooth="yes"/>
      <point x="341" y="382" type="line"/>
      <point x="482" y="715" type="line"/>
      <point x="398" y="715" type="line"/>
      <point x="326" y="537" type="line" smooth="yes"/>
      <point x="318" y="517"/>
      <point x="308" y="482"/>
      <point x="303" y="459" type="curve"/>
      <point x="299" y="459" type="line"/>
      <point x="294" y="481"/>
      <point x="285" y="515"/>
      <point x="279" y="531" type="curve" smooth="yes"/>
      <point x="206" y="715" type="line"/>
      <point x="123" y="715" type="line"/>
      <point x="261" y="383" type="line"/>
      <point x="201" y="231" type="line" smooth="yes"/>
      <point x="188" y="199"/>
      <point x="175" y="160"/>
      <point x="170" y="138" type="curve"/>
      <point x="166" y="138" type="line"/>
      <point x="156" y="172"/>
      <point x="142" y="211"/>
      <point x="134" y="231" type="curve" smooth="yes"/>
      <point x="104" y="308" type="line"/>
      <point x="24" y="308" type="line"/>
    </contour>
  </outline>
</glyph>
<glyph name="uniA939" format="2">
  <advance width="477"/>
  <unicode hex="A939"/>
  <outline>
    <contour>
      <point x="214" y="-13" type="line"/>
      <point x="347" y="231" type="line"/>
      <point x="251" y="459" type="line"/>
      <point x="294" y="574" type="line"/>
      <point x="298" y="574" type="line"/>
      <point x="307" y="539"/>
      <point x="320" y="504"/>
      <point x="328" y="485" type="curve" smooth="yes"/>
      <point x="362" y="407" type="line"/>
      <point x="438" y="407" type="line"/>
      <point x="299" y="734" type="line"/>
      <point x="289" y="734" type="line"/>
      <point x="-21" y="0" type="line"/>
      <point x="63" y="0" type="line"/>
      <point x="92" y="71" type="line" smooth="yes"/>
      <point x="100" y="90"/>
      <point x="116" y="130"/>
      <point x="125" y="164" type="curve"/>
      <point x="129" y="164" type="line"/>
      <point x="136" y="131"/>
      <point x="152" y="95"/>
      <point x="162" y="77" type="curve" smooth="yes"/>
    </contour>
    <contour>
      <point x="217" y="123" type="line"/>
      <point x="164" y="246" type="line"/>
      <point x="212" y="373" type="line"/>
      <point x="216" y="373" type="line"/>
      <point x="223" y="346"/>
      <point x="231" y="321"/>
      <point x="239" y="301" type="curve" smooth="yes"/>
      <point x="268" y="231" type="line"/>
    </contour>
  </outline>
</glyph>
<glyph name="uniA93B" format="2">
  <advance width="746"/>
  <unicode hex="A93B"/>
  <outline>
    <contour>
      <point x="-22" y="0" type="line"/>
      <point x="62" y="0" type="line"/>
      <point x="260" y="485" type="line" smooth="yes"/>
      <point x="267" y="503"/>
      <point x="282" y="542"/>
      <point x="291" y="577" type="curve"/>
      <point x="295" y="577" type="line"/>
      <point x="304" y="542"/>
      <point x="319" y="504"/>
      <point x="327" y="485" type="curve" smooth="yes"/>
      <point x="392" y="330" type="line"/>
      <point x="402" y="330" type="line"/>
      <point x="469" y="485" type="line" smooth="yes"/>
      <point x="477" y="503"/>
      <point x="491" y="542"/>
      <point x="499" y="577" type="curve"/>
      <point x="503" y="577" type="line"/>
      <point x="513" y="542"/>
      <point x="527" y="504"/>
      <point x="535" y="485" type="curve" smooth="yes"/>
      <point x="599" y="330" type="line"/>
      <point x="609" y="330" type="line"/>
      <point x="643" y="412"/>
      <point x="736" y="632"/>
      <point x="770" y="715" type="curve"/>
      <point x="690" y="715" type="line"/>
      <point x="638" y="581" type="line" smooth="yes"/>
      <point x="630" y="561"/>
      <point x="616" y="522"/>
      <point x="606" y="488" type="curve"/>
      <point x="602" y="488" type="line"/>
      <point x="592" y="522"/>
      <point x="578" y="562"/>
      <point x="570" y="581" type="curve" smooth="yes"/>
      <point x="507" y="734" type="line"/>
      <point x="497" y="734" type="line"/>
      <point x="422" y="556" type="line" smooth="yes"/>
      <point x="415" y="538"/>
      <point x="405" y="512"/>
      <point x="399" y="488" type="curve"/>
      <point x="395" y="488" type="line"/>
      <point x="388" y="512"/>
      <point x="379" y="540"/>
      <point x="372" y="556" type="curve" smooth="yes"/>
      <point x="298" y="734" type="line"/>
      <point x="288" y="734" type="line"/>
    </contour>
  </outline>
</glyph>
<glyph name="uniA93C" format="2">
  <advance width="651"/>
  <unicode hex="A93C"/>
  <outline>
    <contour>
      <point x="-23" y="0" type="line"/>
      <point x="61" y="0" type="line"/>
      <point x="260" y="485" type="line" smooth="yes"/>
      <point x="267" y="503"/>
      <point x="282" y="542"/>
      <point x="291" y="577" type="curve"/>
      <point x="295" y="577" type="line"/>
      <point x="304" y="542"/>
      <point x="319" y="504"/>
      <point x="327" y="485" type="curve" smooth="yes"/>
      <point x="363" y="402" type="line"/>
      <point x="192" y="0" type="line"/>
      <point x="276" y="0" type="line"/>
      <point x="475" y="485" type="line" smooth="yes"/>
      <point x="482" y="503"/>
      <point x="497" y="542"/>
      <point x="506" y="577" type="curve"/>
      <point x="510" y="577" type="line"/>
      <point x="519" y="542"/>
      <point x="532" y="504"/>
      <point x="540" y="485" type="curve" smooth="yes"/>
      <point x="571" y="407" type="line"/>
      <point x="652" y="407" type="line"/>
      <point x="513" y="734" type="line"/>
      <point x="504" y="734" type="line"/>
      <point x="425" y="551" type="line" smooth="yes"/>
      <point x="417" y="532"/>
      <point x="408" y="504"/>
      <point x="402" y="479" type="curve"/>
      <point x="398" y="479" type="line"/>
      <point x="393" y="504"/>
      <point x="383" y="532"/>
      <point x="375" y="551" type="curve" smooth="yes"/>
      <point x="298" y="734" type="line"/>
      <point x="288" y="734" type="line"/>
    </contour>
  </outline>
</glyph>
<glyph name="uniA93D" format="2">
  <advance width="651"/>
  <unicode hex="A93D"/>
  <outline>
    <contour>
      <point x="255" y="-20" type="line"/>
      <point x="265" y="-20" type="line"/>
      <point x="475" y="485" type="line" smooth="yes"/>
      <point x="482" y="503"/>
      <point x="497" y="542"/>
      <point x="506" y="577" type="curve"/>
      <point x="510" y="577" type="line"/>
      <point x="519" y="542"/>
      <point x="535" y="504"/>
      <point x="542" y="485" type="curve" smooth="yes"/>
      <point x="571" y="407" type="line"/>
      <point x="652" y="407" type="line"/>
      <point x="514" y="734" type="line"/>
      <point x="504" y="734" type="line"/>
      <point x="425" y="551" type="line" smooth="yes"/>
      <point x="417" y="532"/>
      <point x="408" y="504"/>
      <point x="402" y="479" type="curve"/>
      <point x="398" y="479" type="line"/>
      <point x="393" y="504"/>
      <point x="383" y="532"/>
      <point x="375" y="551" type="curve" smooth="yes"/>
      <point x="298" y="734" type="line"/>
      <point x="288" y="734" type="line"/>
      <point x="-20" y="0" type="line"/>
      <point x="64" y="0" type="line"/>
      <point x="127" y="155" type="line" smooth="yes"/>
      <point x="135" y="175"/>
      <point x="143" y="203"/>
      <point x="150" y="225" type="curve"/>
      <point x="154" y="225" type="line"/>
      <point x="159" y="206"/>
      <point x="169" y="175"/>
      <point x="177" y="157" type="curve" smooth="yes"/>
    </contour>
    <contour>
      <point x="255" y="138" type="line"/>
      <point x="247" y="173"/>
      <point x="237" y="200"/>
      <point x="227" y="223" type="curve" smooth="yes"/>
      <point x="189" y="310" type="line"/>
      <point x="260" y="485" type="line" smooth="yes"/>
      <point x="267" y="503"/>
      <point x="282" y="542"/>
      <point x="291" y="577" type="curve"/>
      <point x="295" y="577" type="line"/>
      <point x="303" y="542"/>
      <point x="319" y="504"/>
      <point x="327" y="485" type="curve" smooth="yes"/>
      <point x="363" y="402" type="line"/>
      <point x="294" y="231" type="line" smooth="yes"/>
      <point x="286" y="212"/>
      <point x="268" y="172"/>
      <point x="260" y="138" type="curve"/>
    </contour>
  </outline>
</glyph>
<glyph name="uniA93F" format="2">
  <advance width="674"/>
  <unicode hex="A93F"/>
  <outline>
    <contour>
      <point x="194" y="-20" type="line"/>
      <point x="208" y="-20" type="line"/>
      <point x="292" y="175" type="line" smooth="yes"/>
      <point x="304" y="204"/>
      <point x="314" y="235"/>
      <point x="321" y="263" type="curve"/>
      <point x="325" y="263" type="line"/>
      <point x="327" y="232"/>
      <point x="331" y="200"/>
      <point x="337" y="170" type="curve" smooth="yes"/>
      <point x="378" y="-20" type="line"/>
      <point x="388" y="-20" type="line"/>
      <point x="697" y="714" type="line"/>
      <point x="613" y="714" type="line"/>
      <point x="433" y="265" type="line" smooth="yes"/>
      <point x="425" y="246"/>
      <point x="414" y="219"/>
      <point x="408" y="191" type="curve"/>
      <point x="404" y="191" type="line"/>
      <point x="401" y="227"/>
      <point x="399" y="251"/>
      <point x="395" y="270" type="curve" smooth="yes"/>
      <point x="355" y="464" type="line"/>
      <point x="345" y="464" type="line"/>
      <point x="280" y="306" type="line" smooth="yes"/>
      <point x="273" y="288"/>
      <point x="249" y="232"/>
      <point x="241" y="204" type="curve"/>
      <point x="237" y="204" type="line"/>
      <point x="237" y="239"/>
      <point x="234" y="278"/>
      <point x="232" y="297" type="curve" smooth="yes"/>
      <point x="193" y="714" type="line"/>
      <point x="113" y="714" type="line"/>
    </contour>
  </outline>
</glyph>
<glyph name="uniA941" format="2">
  <advance width="576"/>
  <unicode hex="A941"/>
  <outline>
    <contour>
      <point x="163" y="-20" type="line"/>
      <point x="173" y="-20" type="line"/>
      <point x="378" y="485" type="line" smooth="yes"/>
      <point x="385" y="503"/>
      <point x="400" y="542"/>
      <point x="409" y="577" type="curve"/>
      <point x="413" y="577" type="line"/>
      <point x="423" y="542"/>
      <point x="438" y="504"/>
      <point x="445" y="485" type="curve" smooth="yes"/>
      <point x="475" y="407" type="line"/>
      <point x="555" y="407" type="line"/>
      <point x="417" y="734" type="line"/>
      <point x="407" y="734" type="line"/>
      <point x="201" y="231" type="line" smooth="yes"/>
      <point x="193" y="212"/>
      <point x="179" y="172"/>
      <point x="170" y="138" type="curve"/>
      <point x="166" y="138" type="line"/>
      <point x="156" y="172"/>
      <point x="142" y="211"/>
      <point x="134" y="231" type="curve" smooth="yes"/>
      <point x="104" y="308" type="line"/>
      <point x="24" y="308" type="line"/>
    </contour>
  </outline>
</glyph>
<glyph name="uniA942" format="2">
  <advance width="578"/>
  <unicode hex="A942"/>
  <outline>
    <contour>
      <point x="283" y="-20" type="line"/>
      <point x="293" y="-20" type="line"/>
      <point x="602" y="715" type="line"/>
      <point x="519" y="715" type="line"/>
      <point x="322" y="231" type="line" smooth="yes"/>
      <point x="314" y="212"/>
      <point x="300" y="172"/>
      <point x="291" y="138" type="curve"/>
      <point x="287" y="138" type="line"/>
      <point x="277" y="172"/>
      <point x="262" y="211"/>
      <point x="254" y="231" type="curve" smooth="yes"/>
      <point x="206" y="356" type="line"/>
      <point x="357" y="715" type="line"/>
      <point x="279" y="715" type="line"/>
      <point x="-20" y="0" type="line"/>
      <point x="58" y="0" type="line"/>
      <point x="165" y="258" type="line"/>
    </contour>
  </outline>
</glyph>
<glyph name="uniA943" format="2">
  <advance width="608"/>
  <unicode hex="A943"/>
  <outline>
    <contour>
      <point x="-22" y="0" type="line"/>
      <point x="62" y="0" type="line"/>
      <point x="267" y="485" type="line" smooth="yes"/>
      <point x="275" y="503"/>
      <point x="292" y="542"/>
      <point x="300" y="577" type="curve"/>
      <point x="304" y="577" type="line"/>
      <point x="314" y="542"/>
      <point x="331" y="504"/>
      <point x="339" y="485" type="curve" smooth="yes"/>
      <point x="548" y="0" type="line"/>
      <point x="634" y="0" type="line"/>
      <point x="308" y="734" type="line"/>
      <point x="298" y="734" type="line"/>
    </contour>
    <contour>
      <point x="139" y="0" type="line"/>
      <point x="217" y="0" type="line"/>
      <point x="277" y="152" type="line" smooth="yes"/>
      <point x="286" y="174"/>
      <point x="294" y="204"/>
      <point x="300" y="229" type="curve"/>
      <point x="304" y="229" type="line"/>
      <point x="313" y="198"/>
      <point x="325" y="161"/>
      <point x="333" y="140" type="curve" smooth="yes"/>
      <point x="387" y="0" type="line"/>
      <point x="467" y="0" type="line"/>
      <point x="308" y="374" type="line"/>
      <point x="298" y="374" type="line"/>
    </contour>
  </outline>
</glyph>
<glyph name="uniA944" format="2">
  <advance width="907"/>
  <unicode hex="A944"/>
  <outline>
    <contour>
      <point x="329" y="-20" type="line"/>
      <point x="339" y="-20" type="line"/>
      <point x="494" y="271" type="line"/>
      <point x="529" y="-20" type="line"/>
      <point x="539" y="-20" type="line"/>
      <point x="938" y="714" type="line"/>
      <point x="859" y="714" type="line"/>
      <point x="613" y="253" type="line" smooth="yes"/>
      <point x="598" y="225"/>
      <point x="586" y="194"/>
      <point x="577" y="165" type="curve"/>
      <point x="573" y="165" type="line"/>
      <point x="573" y="195"/>
      <point x="570" y="230"/>
      <point x="567" y="258" type="curve" smooth="yes"/>
      <point x="552" y="379" type="line"/>
      <point x="732" y="714" type="line"/>
      <point x="659" y="714" type="line"/>
      <point x="539" y="487" type="line"/>
      <point x="511" y="714" type="line"/>
      <point x="442" y="714" type="line"/>
      <point x="482" y="379" type="line"/>
      <point x="413" y="248" type="line" smooth="yes"/>
      <point x="398" y="219"/>
      <point x="386" y="189"/>
      <point x="377" y="160" type="curve"/>
      <point x="373" y="160" type="line"/>
      <point x="373" y="189"/>
      <point x="371" y="225"/>
      <point x="367" y="253" type="curve" smooth="yes"/>
      <point x="306" y="734" type="line"/>
      <point x="296" y="734" type="line"/>
      <point x="-20" y="0" type="line"/>
      <point x="64" y="0" type="line"/>
      <point x="246" y="438" type="line" smooth="yes"/>
      <point x="254" y="457"/>
      <point x="262" y="484"/>
      <point x="267" y="511" type="curve"/>
      <point x="271" y="511" type="line"/>
      <point x="271" y="477"/>
      <point x="274" y="437"/>
      <point x="276" y="418" type="curve" smooth="yes"/>
    </contour>
  </outline>
</glyph>
<glyph name="uniA945" format="2">
  <advance width="753"/>
  <unicode hex="A945"/>
  <outline>
    <contour>
      <point x="258" y="-20" type="line"/>
      <point x="268" y="-20" type="line"/>
      <point x="475" y="485" type="line" smooth="yes"/>
      <point x="482" y="503"/>
      <point x="497" y="542"/>
      <point x="506" y="577" type="curve"/>
      <point x="510" y="577" type="line"/>
      <point x="519" y="542"/>
      <point x="535" y="504"/>
      <point x="542" y="485" type="curve" smooth="yes"/>
      <point x="571" y="407" type="line"/>
      <point x="649" y="407" type="line"/>
      <point x="683" y="489"/>
      <point x="744" y="632"/>
      <point x="778" y="715" type="curve"/>
      <point x="699" y="715" type="line"/>
      <point x="640" y="570" type="line" smooth="yes"/>
      <point x="632" y="549"/>
      <point x="620" y="517"/>
      <point x="613" y="488" type="curve"/>
      <point x="609" y="488" type="line"/>
      <point x="600" y="522"/>
      <point x="585" y="562"/>
      <point x="577" y="581" type="curve" smooth="yes"/>
      <point x="513" y="734" type="line"/>
      <point x="504" y="734" type="line"/>
      <point x="425" y="551" type="line" smooth="yes"/>
      <point x="417" y="532"/>
      <point x="408" y="504"/>
      <point x="402" y="479" type="curve"/>
      <point x="398" y="479" type="line"/>
      <point x="393" y="504"/>
      <point x="383" y="532"/>
      <point x="375" y="551" type="curve" smooth="yes"/>
      <point x="298" y="734" type="line"/>
      <point x="288" y="734" type="line"/>
      <point x="-22" y="0" type="line"/>
      <point x="62" y="0" type="line"/>
      <point x="127" y="155" type="line" smooth="yes"/>
      <point x="135" y="175"/>
      <point x="143" y="203"/>
      <point x="150" y="225" type="curve"/>
      <point x="154" y="225" type="line"/>
      <point x="159" y="206"/>
      <point x="169" y="175"/>
      <point x="177" y="157" type="curve" smooth="yes"/>
    </contour>
    <contour>
      <point x="255" y="138" type="line"/>
      <point x="247" y="169"/>
      <point x="238" y="195"/>
      <point x="229" y="216" type="curve" smooth="yes"/>
      <point x="189" y="310" type="line"/>
      <point x="260" y="485" type="line" smooth="yes"/>
      <point x="267" y="503"/>
      <point x="282" y="542"/>
      <point x="291" y="577" type="curve"/>
      <point x="295" y="577" type="line"/>
      <point x="303" y="542"/>
      <point x="319" y="504"/>
      <point x="327" y="485" type="curve" smooth="yes"/>
      <point x="363" y="402" type="line"/>
      <point x="294" y="231" type="line" smooth="yes"/>
      <point x="286" y="212"/>
      <point x="268" y="172"/>
      <point x="260" y="138" type="curve"/>
    </contour>
  </outline>
</glyph>
<glyph name="uniA947" format="2">
  <unicode hex="A947"/>
  <outline>
    <contour>
      <point x="81" y="131" type="curve" smooth="yes"/>
      <point x="113" y="131"/>
      <point x="139" y="149"/>
      <point x="139" y="186" type="curve" smooth="yes"/>
      <point x="139" y="224"/>
      <point x="113" y="241"/>
      <point x="81" y="241" type="curve" smooth="yes"/>
      <point x="48" y="241"/>
      <point x="23" y="224"/>
      <point x="23" y="186" type="curve" smooth="yes"/>
      <point x="23" y="149"/>
      <point x="48" y="131"/>
    </contour>
  </outline>
</glyph>
<glyph name="uniA94A" format="2">
  <unicode hex="A94A"/>
  <outline>
    <contour>
      <point x="172" y="778" type="line"/>
      <point x="242" y="778" type="line"/>
      <point x="270" y="826" type="line" smooth="yes"/>
      <point x="285" y="852"/>
      <point x="303" y="882"/>
      <point x="318" y="913" type="curve"/>
      <point x="325" y="886"/>
      <point x="341" y="845"/>
      <point x="350" y="824" type="curve" smooth="yes"/>
      <point x="371" y="778" type="line"/>
      <point x="441" y="778" type="line"/>
      <point x="362" y="952" type="line"/>
      <point x="279" y="952" type="line"/>
    </contour>
  </outline>
</glyph>
<glyph name="uniA94D" format="2">
  <unicode hex="A94D"/>
  <outline>
    <contour>
      <point x="73" y="-203" type="line"/>
      <point x="147" y="-203" type="line"/>
      <point x="147" y="-44" type="line"/>
      <point x="73" y="-44" type="line"/>
    </contour>
    <contour>
      <point x="-76" y="-203" type="line"/>
      <point x="-2" y="-203" type="line"/>
      <point x="-2" y="-44" type="line"/>
      <point x="-76" y="-44" type="line"/>
    </contour>
  </outline>
</glyph>
<glyph name="uniA94E" format="2">
  <unicode hex="A94E"/>
  <outline>
    <contour>
      <point x="228" y="-203" type="line"/>
      <point x="302" y="-203" type="line"/>
      <point x="302" y="-44" type="line"/>
      <point x="228" y="-44" type="line"/>
    </contour>
    <contour>
      <point x="79" y="-203" type="line"/>
      <point x="153" y="-203" type="line"/>
      <point x="153" y="-44" type="line"/>
      <point x="79" y="-44" type="line"/>
    </contour>
  </outline>
</glyph>
<glyph name="uniA94F" format="2">
  <unicode hex="A94F"/>
  <outline>
    <contour>
      <point x="350" y="758" type="line"/>
      <point x="453" y="941" type="line"/>
      <point x="385" y="970" type="line"/>
      <point x="282" y="787" type="line"/>
    </contour>
  </outline>
</glyph>
<glyph name="uniA950" format="2">
  <unicode hex="A950"/>
  <outline>
    <contour>
      <point x="430" y="758" type="line"/>
      <point x="533" y="941" type="line"/>
      <point x="465" y="970" type="line"/>
      <point x="362" y="787" type="line"/>
    </contour>
    <contour>
      <point x="267" y="758" type="line"/>
      <point x="370" y="941" type="line"/>
      <point x="302" y="970" type="line"/>
      <point x="199" y="787" type="line"/>
    </contour>
  </outline>
</glyph>
<glyph name="uniA951" format="2">
  <unicode hex="A951"/>
  <outline>
    <contour>
      <point x="261" y="778" type="line"/>
      <point x="344" y="778" type="line"/>
      <point x="451" y="952" type="line"/>
      <point x="381" y="952" type="line"/>
      <point x="353" y="904" type="line" smooth="yes"/>
      <point x="338" y="878"/>
      <point x="320" y="848"/>
      <point x="305" y="817" type="curve"/>
      <point x="298" y="844"/>
      <point x="282" y="885"/>
      <point x="273" y="906" type="curve" smooth="yes"/>
      <point x="252" y="952" type="line"/>
      <point x="182" y="952" type="line"/>
    </contour>
  </outline>
</glyph>
<glyph name="uniA953" format="2">
  <unicode hex="A953"/>
  <outline>
    <contour>
      <point x="362" y="771" type="curve" smooth="yes"/>
      <point x="425" y="771"/>
      <point x="472" y="810"/>
      <point x="472" y="873" type="curve" smooth="yes"/>
      <point x="472" y="937"/>
      <point x="423" y="976"/>
      <point x="362" y="976" type="curve" smooth="yes"/>
      <point x="298" y="976"/>
      <point x="252" y="937"/>
      <point x="252" y="873" type="curve" smooth="yes"/>
      <point x="252" y="810"/>
      <point x="298" y="771"/>
    </contour>
    <contour>
      <point x="362" y="815" type="curve" smooth="yes"/>
      <point x="322" y="815"/>
      <point x="300" y="839"/>
      <point x="300" y="873" type="curve" smooth="yes"/>
      <point x="300" y="910"/>
      <point x="324" y="932"/>
      <point x="362" y="932" type="curve" smooth="yes"/>
      <point x="401" y="932"/>
      <point x="424" y="910"/>
      <point x="424" y="873" type="curve" smooth="yes"/>
      <point x="424" y="839"/>
      <point x="400" y="815"/>
    </contour>
  </outline>
</glyph>
